<svg width="36" height="48" viewBox="0 0 36 48" fill="none" xmlns="http://www.w3.org/2000/svg">
<path fill-rule="evenodd" clip-rule="evenodd" d="M31.5938 13.075C32.7017 13.075 33.595 14.0223 33.4151 15.1307C31.4517 26.4803 31.4517 33.5413 34.3305 43.8172C34.6872 44.9761 33.7939 46.0498 32.6323 46.0498H3.77772C2.61608 46.0498 1.72276 44.9793 2.07946 43.8172C4.93935 33.5413 4.93935 26.4803 2.97278 15.1307C2.81179 14.0223 3.70511 13.075 4.79414 13.075H4.93619C10.7254 13.6623 14.4755 13.9497 18.194 13.9497C21.9124 13.9497 25.6467 13.6465 31.4517 13.075H31.5938ZM13.6736 21.2321C13.6736 21.9269 13.0643 22.5711 12.2973 22.5711C11.5302 22.5711 10.9936 21.9458 10.9936 21.2321C10.9936 20.4995 11.5302 19.8932 12.2973 19.8932C13.0675 19.8932 13.6736 20.4995 13.6736 21.2321ZM23.983 22.5711C24.7501 22.5711 25.3593 21.9269 25.3593 21.2321C25.3593 20.4995 24.7533 19.8932 23.983 19.8932C23.216 19.8932 22.6794 20.4995 22.6794 21.2321C22.6794 21.9458 23.216 22.5711 23.983 22.5711ZM10.7253 25.7732C10.7253 28.1511 12.5467 33.0648 18.1749 33.0648C23.8031 33.0648 25.6276 28.1669 25.6245 25.7732C25.6245 25.2743 25.2299 24.8795 24.7312 24.8795C24.2324 24.8795 23.8379 25.2743 23.8379 25.7732C23.8379 27.5764 22.4458 31.2774 18.1749 31.2774C13.8882 31.2774 12.5119 27.5606 12.5119 25.7732C12.5119 25.2743 12.1174 24.8795 11.6186 24.8795C11.1199 24.8795 10.7253 25.2743 10.7253 25.7732Z" fill="#0072FF"/>
<path d="M21.9305 8.20529C23.9563 7.72675 25.2107 5.69593 24.7324 3.66933C24.254 1.64273 22.224 0.38778 20.1983 0.866318C18.1725 1.34486 16.918 3.37567 17.3964 5.40227C17.8747 7.42887 19.9047 8.68382 21.9305 8.20529Z" fill="#FFCD00"/>
<path d="M30.0249 11.9447L30.1606 8.18368C30.2048 6.92999 28.8222 6.14051 27.7679 6.82262L20.7381 11.3668C20.2394 11.6889 19.9364 12.1595 19.8164 12.6647C22.6763 12.6016 25.735 12.3584 30.0249 11.9447Z" fill="#00CDC7"/>
<path d="M6.58102 11.9699C11.1739 12.4215 14.6588 12.6836 18.1058 12.6868L16.458 7.22358C16.1455 6.18463 15.0502 5.59726 14.0117 5.90989L7.40489 7.90253C6.36637 8.21517 5.77924 9.31096 6.09174 10.3499L6.58102 11.9699Z" fill="#FF4646"/>
</svg>
